<mxfile host="app.diagrams.net" modified="2024-07-22T16:56:51.507Z" agent="Mozilla/5.0 (X11; Linux x86_64) AppleWebKit/537.36 (KHTML, like Gecko) Chrome/126.0.0.0 Safari/537.36" version="24.7.1" etag="BSeADL36T-u-y9mYfQDq" type="github">
  <diagram name="Page-1" id="8ibhewlyh9sRw4tT9H2E">
    <mxGraphModel>
      <root>
        <mxCell id="0" />
        <mxCell id="1" parent="0" />
      </root>
    </mxGraphModel>
  </diagram>
</mxfile>
